# xmcd
# 
# Track frame offsets:
#     150
#     13065
#     26210
#     39080
#     58827
#     72587
#     81942
#     96440
#     110352
#     125170
#     137262
#     148980
# 
# Disc length: 2213
# 
# Revision: 0
# Processed by: cddbd v1.5.2PL0 Copyright (c) Steve Scherf et al.
# Submitted via: BonkEnc v1.0
# 
DISCID=b108a30c
DTITLE=Chitãozinho and Xororó - Somos Apaixonados
DYEAR=1981
DGENRE=Sertanejo
TTITLE0=Somos Apaixonados
TTITLE1=Fio de Cabelo
TTITLE2=Ela Fez a Minha Cabeça
TTITLE3=Casa de Pecados
TTITLE4=Quem é Você
TTITLE5=Explosão de Amor
TTITLE6=Chama de Amor
TTITLE7=Debaixo do Cobertor
TTITLE8=Uma Noite Especial
TTITLE9=Eu Quero é Amor
TTITLE10=Moço Pobre
TTITLE11=Obras do Poeta (Os Passarinhos)
EXTD=
EXTT0=
EXTT1=
EXTT2=
EXTT3=
EXTT4=
EXTT5=
EXTT6=
EXTT7=
EXTT8=
EXTT9=
EXTT10=
EXTT11=
PLAYORDER=
